<?xml version="1.0" ?><svg viewBox="0 0 40 40" xmlns="http://www.w3.org/2000/svg"><title/><g id="Xbox"><path d="M18.8,32a12,12,0,0,1-5.33-1.89c-1.34-.88-1.65-1.24-1.65-2,0-1.45,1.59-4,4.32-6.87a22,22,0,0,1,3.93-3.52c.45.1,4.08,3.64,5.43,5.3,2.15,2.63,3.13,4.78,2.63,5.74-.38.73-2.74,2.16-4.48,2.71A13.14,13.14,0,0,1,18.8,32ZM10,26.6a12.42,12.42,0,0,1-1.95-5.86,9.39,9.39,0,0,1,.2-2.92,11.92,11.92,0,0,1,2.92-5.92c.6-.63.65-.65,1.39-.4a10.14,10.14,0,0,1,3.31,2.29l.86.78-.47.58A37.42,37.42,0,0,0,10.91,24a5.76,5.76,0,0,0-.46,3.09C10.59,27.43,10.46,27.3,10,26.6Zm19.64.29a5.77,5.77,0,0,0-.35-2.53A36.53,36.53,0,0,0,24,15.43l-.69-.86.74-.69A15.28,15.28,0,0,1,26.45,12a4.48,4.48,0,0,1,1.74-.67c.22,0,1,.79,1.6,1.65a12.58,12.58,0,0,1,2,4.66,15.5,15.5,0,0,1,0,4.51,13.65,13.65,0,0,1-.9,2.84,15.5,15.5,0,0,1-1.23,2.11c-.15.19-.15.19-.07-.22ZM19,10.93a15.17,15.17,0,0,0-3.42-1.21,6,6,0,0,0-1.13-.06c-.71,0-.68,0,.45-.54a12.28,12.28,0,0,1,2.8-.93,14.74,14.74,0,0,1,4.64,0A13,13,0,0,1,26,9.53l.25.16-.57,0A10.54,10.54,0,0,0,21,10.94c-.54.26-1,.47-1,.47S19.5,11.19,19,10.93Z" id="Path"/></g></svg>